# xmcd CD database file
#
# Track frame offsets:
#	150
#	15662
#	31790
#	52799
#	63572
#	77008
#	95863
#	107478
#	126255
#	148095
#	165097
#	181849
#	194651
#	220256
#
# Disc length: 3168 seconds
#
# Revision: 1
# Processed by: cddbd v1.5.2PL0 Copyright (c) Steve Scherf et al.
# Submitted via: CDex 1.70beta2
#
DISCID=b90c5e0e
DTITLE=Devil Doll - The Return of Eve
DYEAR=2007
DGENRE=Gothabilly
TTITLE0=The One Who Got Away
TTITLE1=Doreen
TTITLE2=Gypsy Bitch
TTITLE3=Man in Black
TTITLE4=St. Patrick
TTITLE5=Sweet Lorraine
TTITLE6=The Curse
TTITLE7=Tortured
TTITLE8=The Way You Do
TTITLE9=Lord's Prayer
TTITLE10=Sexy
TTITLE11=Queen of the Road
TTITLE12=Heads or Tails
TTITLE13=Fever (Bonus Track)
EXTD=YEAR: 2007
EXTT0=
EXTT1=
EXTT2=
EXTT3=
EXTT4=
EXTT5=
EXTT6=
EXTT7=
EXTT8=
EXTT9=
EXTT10=
EXTT11=
EXTT12=
EXTT13=
PLAYORDER=
